<?xml version="1.0" standalone="no"?>
<!DOCTYPE svg PUBLIC "-//W3C//DTD SVG 20010904//EN"
 "http://www.w3.org/TR/2001/REC-SVG-20010904/DTD/svg10.dtd">
<svg version="1.0" xmlns="http://www.w3.org/2000/svg"
 width="700.000000pt" height="700.000000pt" viewBox="0 0 700.000000 700.000000"
 preserveAspectRatio="xMidYMid meet">
<metadata>
Created by potrace 1.14, written by Peter Selinger 2001-2017
</metadata>
<g transform="translate(0.000000,700.000000) scale(0.100000,-0.100000)"
fill="#000000" stroke="none">
<path d="M1322 5213 c-5 -10 -62 -175 -126 -368 -63 -192 -321 -962 -571
-1710 -250 -748 -455 -1361 -455 -1362 0 -2 144 -3 319 -3 l319 0 93 278 c51
152 94 282 95 287 2 6 201 602 444 1325 468 1395 520 1553 520 1563 0 4 -142
7 -315 7 -289 0 -315 -1 -323 -17z"/>
<path d="M2447 5188 c-14 -39 -423 -1260 -950 -2841 l-193 -577 320 2 321 3
297 890 c164 490 418 1248 564 1685 147 437 272 814 280 838 l13 42 -318 0
-318 0 -16 -42z"/>
<path d="M3399 5203 c0 -36 0 -3404 0 -3420 1 -10 73 -13 326 -13 l325 0 1 93
c0 50 0 421 0 822 1 618 3 727 14 711 8 -10 29 -35 47 -55 18 -20 73 -83 123
-141 49 -58 92 -107 95 -110 3 -3 84 -97 180 -210 96 -113 192 -224 214 -247
21 -23 45 -52 53 -63 8 -11 24 -31 36 -43 12 -13 45 -49 72 -82 47 -56 238
-277 260 -301 5 -6 30 -35 55 -65 144 -171 254 -295 265 -302 8 -4 205 -6 439
-5 l426 3 -25 28 c-13 16 -62 70 -108 120 -46 51 -99 110 -118 131 -19 22 -43
49 -54 61 -11 11 -58 63 -105 114 -47 52 -110 122 -141 155 -31 34 -71 79 -90
100 -19 22 -43 49 -54 61 -24 25 -63 68 -209 230 -60 66 -130 143 -155 171
-25 27 -82 90 -126 138 -44 49 -91 101 -105 116 -114 124 -255 284 -255 290 0
10 35 54 143 182 l84 99 666 -1 c367 -1 776 -1 910 -1 l242 1 0 260 0 260
-690 0 c-379 0 -690 3 -690 8 0 4 17 26 38 48 20 23 44 50 52 60 107 133 254
303 263 306 7 2 240 4 520 3 l507 -1 0 258 0 258 -734 0 -734 0 -74 -92 c-40
-51 -81 -102 -90 -113 -9 -11 -152 -191 -319 -400 -166 -209 -338 -425 -383
-481 -81 -101 -103 -128 -154 -193 -27 -34 -282 -353 -287 -359 -2 -2 -3 354
-3 790 -1 436 -1 805 -1 821 l-1 27 -325 0 -325 0 -1 -27z"/>
</g>
</svg>
